<?xml version="1.0" encoding="utf-8"?>
<!-- Generator: Adobe Illustrator 21.0.2, SVG Export Plug-In . SVG Version: 6.00 Build 0)  -->
<svg version="1.1" id="Layer_1" xmlns="http://www.w3.org/2000/svg" xmlns:xlink="http://www.w3.org/1999/xlink" x="0px" y="0px"
	 viewBox="0 0 792 612" style="enable-background:new 0 0 792 612;" xml:space="preserve">
<style type="text/css">
	.st0{fill:url(#SVGID_1_);stroke:#000000;stroke-width:0.25;stroke-miterlimit:10;}
	.st1{fill:none;}
</style>
<linearGradient id="SVGID_1_" gradientUnits="userSpaceOnUse" x1="224.51" y1="325.39" x2="601.88" y2="325.39">
	<stop  offset="0" style="stop-color:#A3D290"/>
	<stop  offset="1" style="stop-color:#31C5F4"/>
</linearGradient>
<path class="st0" d="M584,142.9H242.4c-9.8,0-17.9,8-17.9,17.9V490c0,9.8,8,17.9,17.9,17.9H584c9.8,0,17.9-8,17.9-17.9V160.8
	C601.9,151,593.8,142.9,584,142.9z M325.6,447.3c0,6.6-5.4,12-12,12h-19.1c-6.6,0-12-5.4-12-12V266.1c0-6.6,5.4-12,12-12h19.1
	c6.6,0,12,5.4,12,12V447.3z M378.6,385.6c0,6.6-5.4,12-12,12h-8.1c-6.6,0-12-5.4-12-12v-103c0-6.6,5.4-12,12-12h8.1
	c6.6,0,12,5.4,12,12V385.6z M425.9,385.6c0,6.6-5.4,12-12,12h-8.1c-6.6,0-12-5.4-12-12v-103c0-6.6,5.4-12,12-12h8.1
	c6.6,0,12,5.4,12,12V385.6z M471.9,385.6c0,6.6-5.4,12-12,12h-8.1c-6.6,0-12-5.4-12-12v-103c0-6.6,5.4-12,12-12h8.1
	c6.6,0,12,5.4,12,12V385.6z M537.6,446.3c0,6.6-5.4,12-12,12h-19.1c-6.6,0-12-5.4-12-12V265.1c0-6.6,5.4-12,12-12h19.1
	c6.6,0,12,5.4,12,12V446.3z"/>
<path class="st1" d="M378.6,282.6v103c0,6.6-5.4,12-12,12h-8.1c-6.6,0-12-5.4-12-12v-103c0-6.6,5.4-12,12-12h8.1
	C373.2,270.6,378.6,276,378.6,282.6z"/>
<path class="st1" d="M425.9,282.6v103c0,6.6-5.4,12-12,12h-8.1c-6.6,0-12-5.4-12-12v-103c0-6.6,5.4-12,12-12h8.1
	C420.5,270.6,425.9,276,425.9,282.6z"/>
<path class="st1" d="M471.9,282.6v103c0,6.6-5.4,12-12,12h-8.1c-6.6,0-12-5.4-12-12v-103c0-6.6,5.4-12,12-12h8.1
	C466.5,270.6,471.9,276,471.9,282.6z"/>
</svg>
